<svg xmlns="http://www.w3.org/2000/svg" version="1.1" viewBox="-5.0 -10.0 110.0 135.0">
 <path d="m27.457 81.086-4 4.3125c-2.4531 2.7891-7.1836 2.668-9.5156-0.23047-2.168-2.5508-1.7812-6.6172 0.86719-9.0703l29.98-27.711c1.3008-1.2578 1.6484-3.207 0.87891-4.8242-3.7891-8.1875-2.25-17.719 3.918-24.273 0.78516-0.83594 0.74609-2.1523-0.089844-2.9414-0.83594-0.78516-2.1523-0.75-2.9414 0.089844-7.3398 7.8008-9.168 19.137-4.6211 28.93l-29.945 27.68c-10.535 10.445 4.0703 25.43 14.531 15.18 0 0 3.9961-4.3086 3.9961-4.3086 1.8398-2.0156-1.1953-4.8125-3.0508-2.832z"/>
 <path d="m91.527 31.914c-0.26172-3.9258-5.4648-5.8477-8.1836-2.9688l-13.34 13.336c-0.3125 0.31641-0.57812 0.30859-0.88672 0l-11.527-11.527c-0.26562-0.32812-0.26172-0.55859 0-0.88672 0 0 13.242-13.242 13.242-13.242 2.8789-2.7188 0.92578-7.9688-3.0312-8.1758-2.8086-0.52734-16.969 0.89062-14.906 5.3828 0.50781 1.0312 1.75 1.4609 2.7852 0.95312 3.6367-1.7773 7.7109-2.5312 11.758-2.1875 0.60156 0.074219 0.80859 0.6875 0.44141 1.0977 0 0-13.234 13.234-13.234 13.234-0.90625 0.90625-1.4062 2.1094-1.4062 3.3867s0.5 2.4805 1.4062 3.3867l11.527 11.527c1.8086 1.8164 4.9531 1.8164 6.7695 0l13.332-13.332c0.45312-0.38281 0.98828-0.16406 1.1055 0.41406 0.59375 6.5273-1.7148 12.914-6.3281 17.527-6.4766 6.4727-16.422 8.2305-24.73 4.3789-1.6406-0.78125-3.5859-0.42969-4.8789 0.90625l-18.352 19.852c-1.8203 1.9727 1.1797 4.8359 3.0547 2.8242 0 0 18.406-19.812 18.406-19.812 17.922 8.5312 39.039-6.293 36.969-26.07z"/>
 <path d="m17.141 79.051c-2.375 2.457 1.2227 6.0547 3.6797 3.6797 2.375-2.457-1.2227-6.0547-3.6797-3.6797z"/>
<text x="0.0" y="117.5" font-size="5.0" font-weight="bold" font-family="Arbeit Regular, Helvetica, Arial-Unicode, Arial, Sans-serif" fill="#000000">Created by Selot Lo</text><text x="0.0" y="122.5" font-size="5.0" font-weight="bold" font-family="Arbeit Regular, Helvetica, Arial-Unicode, Arial, Sans-serif" fill="#000000">from Noun Project</text></svg>