<svg xmlns="http://www.w3.org/2000/svg" version="1.1" viewBox="-5.0 -10.0 110.0 135.0">
 <path d="m72.578 70.328c0.066406 0 0.13672-0.066406 0.13672-0.13672l20.668-19.441-6.6172-6.4805-11.801 11.254c-0.13672 0.066406-0.27344 0.20312-0.41016 0.27344l-14.734 14.051 5.7969 7.0273 6.957-6.5469zm22.918-21.762c1.3633-1.7734 1.6367-3.5469 1.2266-4.9805-0.20312-0.61328-0.54688-1.2266-0.95312-1.6367-0.41016-0.47656-0.95312-0.88672-1.5703-1.0898-1.4336-0.54688-3.3438-0.27344-5.1836 1.2969zm-93.93 32.129c-0.88672 0-1.5703-0.68359-1.5703-1.5 0-0.88672 0.68359-1.5703 1.5703-1.5703h3.8867v-7.9805h-3.8867c-0.88672 0-1.5703-0.68359-1.5703-1.5 0-0.88672 0.68359-1.5703 1.5703-1.5703h3.8867v-7.9805h-3.8867c-0.88672 0-1.5703-0.68359-1.5703-1.5 0-0.88672 0.68359-1.5703 1.5703-1.5703h3.8867v-7.9141h-3.8867c-0.88672 0-1.5703-0.68359-1.5703-1.5703 0-0.82031 0.68359-1.5 1.5703-1.5h3.8867v-7.9805h-3.8867c-0.88672 0-1.5703-0.68359-1.5703-1.5703 0-0.82031 0.68359-1.5 1.5703-1.5h3.8867v-7.9805h-3.8867c-0.88672 0-1.5703-0.68359-1.5703-1.5703 0-0.82031 0.68359-1.5 1.5703-1.5h3.8867v-16.168c0-1.707 0.68359-3.2734 1.8398-4.4336 1.1602-1.1602 2.7266-1.8398 4.4336-1.8398h57.23c1.7734 0 3.2734 1.2969 4.3672 3 1.1602 1.8398 1.9102 4.2969 1.9102 6.0039v41.949l11.461-10.848c2.9336-2.6602 6.0703-3.0703 8.5938-2.1133 1.0234 0.41016 1.9766 1.0234 2.7266 1.8398 0.75 0.82031 1.2969 1.7734 1.6367 2.8633 0.82031 2.7266 0.13672 6.1406-3.0703 9.207l-21.352 20.121v21.625c0 1.7734-0.68359 3.3438-1.8398 4.5039l-0.066406 0.066406c-1.1602 1.0898-2.6602 1.7734-4.3672 1.7734h-57.23c-1.707 0-3.2734-0.75-4.4336-1.8398-1.1602-1.1602-1.8398-2.7266-1.8398-4.5039v-12.961h-3.8867zm6.957-3.0703h3.3438c0.88672 0 1.5703 0.68359 1.5703 1.5703 0 0.82031-0.68359 1.5-1.5703 1.5h-3.3438v12.961c0 0.88672 0.33984 1.707 0.95312 2.3203 0.61328 0.54688 1.3633 0.95313 2.25 0.95313h57.23c0.82031 0 1.6367-0.33984 2.1836-0.88672l0.066406-0.066407c0.61328-0.61328 0.95312-1.4336 0.95312-2.3203v-18.691l-5.5938 5.2539v0.066406h-0.066406v0.066406h-0.066406v0.066407h-0.13281v0.066406h-0.13281v0.066406h-0.13281v0.066407h-0.066406l-14.051 4.707c-0.82031 0.27344-1.707-0.13672-1.9766-0.95312-0.13672-0.41016-0.066406-0.82031 0.13672-1.1602l6.207-14.051c0.066406-0.20312 0.20312-0.47656 0.47656-0.61328v-0.066406l15.418-14.598v-44.883c0-1.2266-0.54688-3-1.4336-4.3672-0.54688-0.88672-1.2266-1.5703-1.7734-1.5703h-57.23c-0.88672 0-1.6367 0.33984-2.25 0.95312-0.61328 0.61328-0.95313 1.3633-0.95313 2.25v16.168h3.3438c0.88672 0 1.5703 0.68359 1.5703 1.5 0 0.88672-0.68359 1.5703-1.5703 1.5703h-3.3438v7.9805h3.3438c0.88672 0 1.5703 0.68359 1.5703 1.5 0 0.88672-0.68359 1.5703-1.5703 1.5703h-3.3438v7.9805h3.3438c0.88672 0 1.5703 0.68359 1.5703 1.5 0 0.88672-0.68359 1.5703-1.5703 1.5703h-3.3438v7.9141h3.3438c0.88672 0 1.5703 0.68359 1.5703 1.5703 0 0.82031-0.68359 1.5-1.5703 1.5h-3.3438v7.9805h3.3438c0.88672 0 1.5703 0.68359 1.5703 1.5703 0 0.82031-0.68359 1.5-1.5703 1.5h-3.3438v7.9805zm14.461-3.957c-0.82031 0-1.5-0.68359-1.5-1.5703 0-0.82031 0.68359-1.5 1.5-1.5h21.828c0.82031 0 1.5 0.68359 1.5 1.5 0 0.88672-0.68359 1.5703-1.5 1.5703zm0-11.867c-0.82031 0-1.5-0.68359-1.5-1.5703 0-0.82031 0.68359-1.5 1.5-1.5h34.719c0.82031 0 1.5703 0.68359 1.5703 1.5 0 0.88672-0.75 1.5703-1.5703 1.5703zm0-12.621c-0.82031 0-1.5-0.68359-1.5-1.5703 0-0.82031 0.68359-1.5 1.5-1.5h34.719c0.82031 0 1.5703 0.68359 1.5703 1.5 0 0.88672-0.75 1.5703-1.5703 1.5703zm0-12.621c-0.82031 0-1.5-0.68359-1.5-1.5703 0-0.82031 0.68359-1.5 1.5-1.5h34.719c0.82031 0 1.5703 0.68359 1.5703 1.5 0 0.88672-0.75 1.5703-1.5703 1.5703zm0-12.621c-0.82031 0-1.5-0.68359-1.5-1.5703 0-0.82031 0.68359-1.5 1.5-1.5h34.719c0.82031 0 1.5703 0.68359 1.5703 1.5 0 0.88672-0.75 1.5703-1.5703 1.5703zm35.129 48.637-3.8867 8.7305 8.6641-2.8633-4.7734-5.8672z"/>
<text x="0.0" y="117.5" font-size="5.0" font-weight="bold" font-family="Arbeit Regular, Helvetica, Arial-Unicode, Arial, Sans-serif" fill="#000000">Created by popcornarts</text><text x="0.0" y="122.5" font-size="5.0" font-weight="bold" font-family="Arbeit Regular, Helvetica, Arial-Unicode, Arial, Sans-serif" fill="#000000">from Noun Project</text></svg>